<?xml version="1.0" standalone="no"?>
<!DOCTYPE svg PUBLIC "-//W3C//DTD SVG 20010904//EN"
 "http://www.w3.org/TR/2001/REC-SVG-20010904/DTD/svg10.dtd">
<svg version="1.0" xmlns="http://www.w3.org/2000/svg"
 width="700.000000pt" height="700.000000pt" viewBox="0 0 700.000000 700.000000"
 preserveAspectRatio="xMidYMid meet">
<metadata>
Created by potrace 1.14, written by Peter Selinger 2001-2017
</metadata>
<g transform="translate(0.000000,700.000000) scale(0.100000,-0.100000)"
fill="#000000" stroke="none">
<path d="M2833 6275 c-129 -30 -264 -129 -328 -239 -88 -150 -96 -347 -21
-500 60 -123 188 -229 331 -273 53 -17 264 -8 315 12 122 49 224 142 286 258
l39 72 0 160 c0 160 0 161 -32 225 -59 120 -196 235 -325 275 -69 21 -199 26
-265 10z m239 -217 c142 -66 217 -204 187 -348 -15 -73 -39 -117 -91 -170 -65
-65 -116 -85 -218 -85 -72 0 -92 4 -135 27 -85 44 -142 114 -168 203 -71 253
188 481 425 373z"/>
<path d="M2225 5463 c-224 -133 -305 -186 -305 -201 1 -26 77 -167 89 -165 16
4 362 216 389 239 14 11 -80 164 -100 163 -7 0 -40 -17 -73 -36z"/>
<path d="M1235 5360 c-87 -19 -194 -86 -273 -170 -18 -19 -52 -73 -75 -119
l-42 -84 0 -136 c1 -135 1 -137 37 -212 62 -133 221 -267 348 -294 57 -13 228
-7 284 9 65 19 158 79 214 138 54 56 65 73 105 150 32 62 32 64 32 209 l0 146
-40 79 c-72 142 -200 246 -345 282 -37 8 -209 10 -245 2z m260 -224 c106 -52
165 -145 173 -271 4 -74 2 -88 -23 -143 -72 -161 -266 -233 -418 -157 -167 83
-239 285 -154 434 84 148 273 209 422 137z"/>
<path d="M4281 5184 c-216 -57 -377 -260 -384 -484 -3 -123 13 -193 70 -291
45 -79 132 -154 231 -202 l82 -40 128 0 c77 0 143 5 167 13 116 37 235 137
295 250 44 82 49 102 55 229 8 165 -32 267 -151 386 -64 65 -168 124 -244 140
-69 14 -195 13 -249 -1z m253 -213 c87 -42 166 -132 184 -208 3 -15 6 -60 6
-99 0 -57 -6 -82 -27 -127 -73 -147 -260 -216 -404 -148 -74 35 -126 80 -160
139 -24 41 -27 55 -27 146 -1 85 3 107 21 142 31 58 123 139 186 162 66 26
160 22 221 -7z"/>
<path d="M1933 4492 c-13 -20 -38 -58 -58 -83 l-35 -47 129 -96 c71 -53 136
-96 145 -96 14 0 65 57 101 113 15 23 15 30 4 44 -12 14 -225 178 -254 195 -6
4 -20 -10 -32 -30z"/>
<path d="M3640 4345 c-58 -36 -112 -69 -120 -74 -13 -9 -10 -20 20 -75 19 -37
42 -76 51 -88 l16 -21 39 23 c22 13 81 50 132 83 l93 59 -27 47 c-39 67 -73
111 -87 111 -7 0 -59 -30 -117 -65z"/>
<path d="M2750 4362 c-221 -31 -429 -208 -510 -433 -20 -54 -24 -83 -24 -189
0 -110 3 -134 26 -198 36 -98 81 -173 149 -242 96 -97 205 -156 341 -184 382
-79 757 244 743 639 -8 199 -102 377 -260 490 -137 98 -304 140 -465 117z"/>
<path d="M4980 4303 c-25 -37 -48 -73 -53 -79 -5 -9 21 -32 83 -74 50 -33 95
-60 100 -60 6 0 10 -4 10 -8 0 -5 10 -14 23 -21 34 -18 52 -30 192 -122 72
-47 175 -114 230 -148 55 -35 111 -71 125 -79 14 -9 42 -24 63 -34 l37 -17 38
52 c21 29 46 64 55 78 l17 26 -197 127 c-109 70 -281 181 -383 247 -102 65
-190 123 -196 128 -6 4 -20 12 -31 15 -12 4 -27 13 -33 21 -21 26 -34 17 -80
-52z"/>
<path d="M6418 3885 c-2 -1 -28 -5 -58 -8 -197 -20 -358 -142 -438 -333 -24
-58 -33 -184 -20 -291 16 -137 137 -292 284 -364 l69 -34 155 0 c148 0 157 1
211 27 121 59 233 180 278 303 12 33 25 95 28 140 16 228 -128 444 -352 525
-33 13 -153 39 -157 35z m116 -235 c60 -29 134 -106 164 -170 68 -144 -3 -332
-151 -404 -157 -76 -345 -10 -427 150 -21 41 -25 62 -24 129 2 116 46 202 137
267 78 56 217 69 301 28z"/>
<path d="M464 3700 c-124 -26 -280 -146 -336 -260 -76 -155 -74 -355 4 -503
56 -104 172 -199 295 -243 73 -25 250 -23 328 5 165 58 295 202 335 368 13 56
16 197 6 231 -4 11 -9 31 -11 44 -11 55 -69 151 -128 210 -71 72 -157 121
-243 141 -68 16 -190 19 -250 7z m246 -217 c52 -23 127 -92 158 -143 24 -42
40 -120 35 -180 -8 -97 -87 -204 -190 -255 -80 -40 -184 -41 -259 -3 -134 70
-209 224 -175 365 45 186 259 293 431 216z"/>
<path d="M1900 3619 c-41 -11 -82 -21 -90 -23 -8 -2 -134 -33 -280 -69 -146
-36 -272 -67 -281 -69 -14 -3 -15 -10 -4 -63 7 -33 15 -77 19 -97 6 -31 11
-38 29 -38 12 0 186 42 387 93 416 105 381 85 348 204 -26 96 -15 91 -128 62z"/>
<path d="M3599 3350 c-24 -14 -89 -115 -89 -138 0 -18 120 -102 455 -317 28
-18 96 -62 153 -99 57 -36 104 -66 106 -66 3 0 93 129 109 156 4 7 -98 78
-263 185 -149 96 -309 200 -358 231 -97 64 -91 61 -113 48z"/>
<path d="M2441 2960 c-10 -17 -46 -101 -80 -188 -35 -86 -71 -177 -81 -202
-11 -25 -34 -85 -53 -135 -202 -529 -205 -535 -194 -535 1 0 40 -16 85 -35
l82 -34 19 38 c11 21 47 108 81 192 33 85 64 163 69 174 18 42 61 152 74 190
8 22 53 140 101 263 47 122 86 226 86 231 0 5 -28 18 -62 31 -35 12 -67 26
-72 31 -18 16 -36 9 -55 -21z"/>
<path d="M4695 2937 c-131 -44 -258 -152 -313 -267 -123 -260 -19 -572 233
-697 85 -43 142 -56 232 -55 118 1 247 48 340 124 172 142 229 399 135 611
-55 125 -202 253 -327 284 -50 13 -262 12 -300 0z m275 -205 c113 -45 201
-185 196 -311 -6 -153 -156 -301 -305 -301 -233 0 -394 236 -303 443 67 151
259 229 412 169z"/>
<path d="M1752 1740 c-93 -20 -201 -85 -275 -165 -144 -158 -164 -445 -44
-627 166 -250 505 -310 747 -133 199 146 265 423 155 650 -52 107 -175 215
-290 256 -68 24 -222 34 -293 19z m250 -218 c61 -27 125 -93 156 -162 37 -80
37 -184 -2 -260 -35 -70 -78 -115 -140 -147 -59 -30 -85 -36 -153 -35 -118 1
-226 71 -280 180 -39 80 -39 182 0 264 35 71 117 148 183 171 64 22 172 17
236 -11z"/>
</g>
</svg>
